<svg width="0" height="0" class="hidden">
  <symbol fill="none" xmlns="http://www.w3.org/2000/svg" viewBox="0 0 24 24" id="Calling">
    <path opacity="0.4" d="M14.353 2.5C18.054 2.911 20.978 5.831 21.393 9.532" stroke="#FF5722" stroke-width="1.5" stroke-linecap="round" stroke-linejoin="round"></path>
    <path opacity="0.4" d="M14.353 6.04297C16.124 6.38697 17.508 7.77197 17.853 9.54297" stroke="#FF5722" stroke-width="1.5" stroke-linecap="round" stroke-linejoin="round"></path>
    <path fill-rule="evenodd" clip-rule="evenodd" d="M11.0315 12.4724C15.0205 16.4604 15.9254 11.8467 18.4653 14.3848C20.9138 16.8328 22.3222 17.3232 19.2188 20.4247C18.8302 20.737 16.3613 24.4943 7.68447 15.8197C-0.993405 7.144 2.76157 4.67244 3.07394 4.28395C6.18377 1.17385 6.66682 2.58938 9.11539 5.03733C11.6541 7.5765 7.04254 8.48441 11.0315 12.4724Z" stroke="#FF5722" stroke-width="1.5" stroke-linecap="round" stroke-linejoin="round"></path>
  </symbol>
  <symbol fill="none" xmlns="http://www.w3.org/2000/svg" viewBox="0 0 24 24" id="Instagram">
    <g clip-path="url(#clip0_2_2)">
      <path d="M12 0C8.74 0 8.333 0.015 7.053 0.072C5.775 0.132 4.905 0.333 4.14 0.63C3.351 0.936 2.681 1.347 2.014 2.014C1.347 2.681 0.935 3.35 0.63 4.14C0.333 4.905 0.131 5.775 0.072 7.053C0.012 8.333 0 8.74 0 12C0 15.26 0.015 15.667 0.072 16.947C0.132 18.224 0.333 19.095 0.63 19.86C0.936 20.648 1.347 21.319 2.014 21.986C2.681 22.652 3.35 23.065 4.14 23.37C4.906 23.666 5.776 23.869 7.053 23.928C8.333 23.988 8.74 24 12 24C15.26 24 15.667 23.985 16.947 23.928C18.224 23.868 19.095 23.666 19.86 23.37C20.648 23.064 21.319 22.652 21.986 21.986C22.652 21.319 23.065 20.651 23.37 19.86C23.666 19.095 23.869 18.224 23.928 16.947C23.988 15.667 24 15.26 24 12C24 8.74 23.985 8.333 23.928 7.053C23.868 5.776 23.666 4.904 23.37 4.14C23.064 3.351 22.652 2.681 21.986 2.014C21.319 1.347 20.651 0.935 19.86 0.63C19.095 0.333 18.224 0.131 16.947 0.072C15.667 0.012 15.26 0 12 0ZM12 2.16C15.203 2.16 15.585 2.176 16.85 2.231C18.02 2.286 18.655 2.48 19.077 2.646C19.639 2.863 20.037 3.123 20.459 3.542C20.878 3.962 21.138 4.361 21.355 4.923C21.519 5.345 21.715 5.98 21.768 7.15C21.825 8.416 21.838 8.796 21.838 12C21.838 15.204 21.823 15.585 21.764 16.85C21.703 18.02 21.508 18.655 21.343 19.077C21.119 19.639 20.864 20.037 20.444 20.459C20.025 20.878 19.62 21.138 19.064 21.355C18.644 21.519 17.999 21.715 16.829 21.768C15.555 21.825 15.18 21.838 11.97 21.838C8.759 21.838 8.384 21.823 7.111 21.764C5.94 21.703 5.295 21.508 4.875 21.343C4.306 21.119 3.915 20.864 3.496 20.444C3.075 20.025 2.806 19.62 2.596 19.064C2.431 18.644 2.237 17.999 2.176 16.829C2.131 15.569 2.115 15.18 2.115 11.985C2.115 8.789 2.131 8.399 2.176 7.124C2.237 5.954 2.431 5.31 2.596 4.89C2.806 4.32 3.075 3.93 3.496 3.509C3.915 3.09 4.306 2.82 4.875 2.611C5.295 2.445 5.926 2.25 7.096 2.19C8.371 2.145 8.746 2.13 11.955 2.13L12 2.16ZM12 5.838C8.595 5.838 5.838 8.598 5.838 12C5.838 15.405 8.598 18.162 12 18.162C15.405 18.162 18.162 15.402 18.162 12C18.162 8.595 15.402 5.838 12 5.838ZM12 16C9.79 16 8 14.21 8 12C8 9.79 9.79 8 12 8C14.21 8 16 9.79 16 12C16 14.21 14.21 16 12 16ZM19.846 5.595C19.846 6.39 19.2 7.035 18.406 7.035C17.611 7.035 16.966 6.389 16.966 5.595C16.966 4.801 17.612 4.156 18.406 4.156C19.199 4.155 19.846 4.801 19.846 5.595Z" fill="#FF5722"></path>
    </g>
    <defs>
      <clipPath id="clip0_2_2">
        <rect width="24" height="24" fill="white"></rect>
      </clipPath>
    </defs>
  </symbol>
  <symbol fill="none" xmlns="http://www.w3.org/2000/svg" viewBox="0 0 24 24" id="Linkedin">
    <g clip-path="url(#clip0_2_4)">
      <rect width="24" height="24" fill="white"></rect>
      <path d="M20.447 20.452H16.893V14.883C16.893 13.555 16.866 11.846 15.041 11.846C13.188 11.846 12.905 13.291 12.905 14.785V20.452H9.351V9H12.765V10.561H12.811C13.288 9.661 14.448 8.711 16.181 8.711C19.782 8.711 20.448 11.081 20.448 14.166L20.447 20.452ZM5.337 7.433C4.193 7.433 3.274 6.507 3.274 5.368C3.274 4.23 4.194 3.305 5.337 3.305C6.477 3.305 7.401 4.23 7.401 5.368C7.401 6.507 6.476 7.433 5.337 7.433ZM7.119 20.452H3.555V9H7.119V20.452ZM22.225 0H1.771C0.792 0 0 0.774 0 1.729V22.271C0 23.227 0.792 24 1.771 24H22.222C23.2 24 24 23.227 24 22.271V1.729C24 0.774 23.2 0 22.222 0L22.225 0Z" fill="#FF5722"></path>
    </g>
    <defs>
      <clipPath id="clip0_2_4">
        <rect width="24" height="24" fill="white"></rect>
      </clipPath>
    </defs>
  </symbol>
  <symbol fill="none" xmlns="http://www.w3.org/2000/svg" viewBox="0 0 24 24" id="Location">
    <path fill-rule="evenodd" clip-rule="evenodd" d="M4.23901 10.3912C4.25342 6.15065 7.70278 2.72465 11.9434 2.73906C16.1839 2.75347 19.6099 6.20282 19.5955 10.4434V10.5304C19.5434 13.2869 18.0042 15.8347 16.1173 17.826C15.0381 18.9466 13.833 19.9387 12.526 20.7825C12.1765 21.0848 11.6581 21.0848 11.3086 20.7825C9.36008 19.5143 7.64995 17.9131 6.2564 16.0521C5.01436 14.4293 4.30918 12.4597 4.23901 10.4173V10.3912Z" stroke="#FF5722" stroke-width="1.5" stroke-linecap="round" stroke-linejoin="round"></path>
    <path opacity="0.4" d="M11.9172 12.9999C13.2763 12.9999 14.3781 11.8981 14.3781 10.539C14.3781 9.17989 13.2763 8.07812 11.9172 8.07812C10.5581 8.07812 9.45633 9.17989 9.45633 10.539C9.45633 11.8981 10.5581 12.9999 11.9172 12.9999Z" stroke="#FF5722" stroke-width="1.5" stroke-linecap="round" stroke-linejoin="round"></path>
  </symbol>
  <symbol fill="none" xmlns="http://www.w3.org/2000/svg" viewBox="0 0 24 24" id="Message">
    <path opacity="0.4" d="M17.2678 8.56104L13.0024 11.9953C12.1952 12.6282 11.0636 12.6282 10.2564 11.9953L5.95435 8.56104" stroke="#FF5722" stroke-width="1.5" stroke-linecap="round" stroke-linejoin="round"></path>
    <path fill-rule="evenodd" clip-rule="evenodd" d="M6.88787 3H16.3158C17.6752 3.01525 18.969 3.58993 19.896 4.5902C20.823 5.59048 21.3022 6.92903 21.222 8.29412V14.822C21.3022 16.1871 20.823 17.5256 19.896 18.5259C18.969 19.5262 17.6752 20.1009 16.3158 20.1161H6.88787C3.96796 20.1161 2 17.7407 2 14.822V8.29412C2 5.37545 3.96796 3 6.88787 3Z" stroke="#FF5722" stroke-width="1.5" stroke-linecap="round" stroke-linejoin="round"></path>
  </symbol>
  <symbol fill="none" xmlns="http://www.w3.org/2000/svg" viewBox="0 0 24 24" id="Telegram">
    <g clip-path="url(#clip0_2_6)">
      <path d="M23.91 3.79L20.3 20.84C20.05 22.05 19.32 22.34 18.3 21.78L12.8 17.71L10.14 20.28C9.84 20.58 9.59 20.84 9.04 20.84C8.32 20.84 8.44 20.57 8.2 19.89L6.3 13.7L0.849998 12C-0.330002 11.65 -0.340002 10.84 1.11 10.25L22.37 2.05C23.34 1.62 24.27 2.29 23.9 3.78L23.91 3.79Z" fill="#FF5722"></path>
    </g>
    <defs>
      <clipPath id="clip0_2_6">
        <rect width="24" height="24" fill="white"></rect>
      </clipPath>
    </defs>
  </symbol>
  <symbol fill="none" xmlns="http://www.w3.org/2000/svg" viewBox="0 0 24 24" id="Twitter">
    <g clip-path="url(#clip0_2_8)">
      <path d="M23.954 4.569C23.069 4.958 22.124 5.223 21.129 5.344C22.143 4.733 22.923 3.77 23.292 2.621C22.341 3.176 21.287 3.58 20.165 3.805C19.269 2.846 17.992 2.246 16.574 2.246C13.857 2.246 11.654 4.449 11.654 7.163C11.654 7.553 11.699 7.928 11.781 8.287C7.691 8.094 4.066 6.13 1.64 3.161C1.213 3.883 0.974 4.722 0.974 5.636C0.974 7.346 1.844 8.849 3.162 9.732C2.355 9.706 1.596 9.484 0.934 9.116V9.177C0.934 11.562 2.627 13.551 4.88 14.004C4.467 14.115 4.031 14.175 3.584 14.175C3.27 14.175 2.969 14.145 2.668 14.089C3.299 16.042 5.113 17.466 7.272 17.506C5.592 18.825 3.463 19.611 1.17 19.611C0.78 19.611 0.391 19.588 0 19.544C2.189 20.938 4.768 21.753 7.557 21.753C16.611 21.753 21.556 14.257 21.556 7.767C21.556 7.558 21.556 7.347 21.541 7.137C22.502 6.448 23.341 5.577 24.001 4.589L23.954 4.569Z" fill="#FF5722"></path>
    </g>
    <defs>
      <clipPath id="clip0_2_8">
        <rect width="24" height="24" fill="white"></rect>
      </clipPath>
    </defs>
  </symbol>
  <symbol xmlns="http://www.w3.org/2000/svg" width="102" height="22" viewbox="0 0 102 22" id="Tapsi-logo">
    <g fill="#FFF" fill-rule="evenodd" data-darkreader-inline-fill="" style="--darkreader-inline-fill:#080808;">
        <path d="M102 5.946h-3.222v4.28H91.8v-4.28h-3.221v4.28h-5.637a1.878 1.878 0 0 1-1.879-1.872V5.946h-3.221v2.408a1.878 1.878 0 0 1-1.879 1.873 1.878 1.878 0 0 1-1.879-1.873V5.946h-3.221v2.408a1.878 1.878 0 0 1-1.879 1.873h-1.879V5.946h-3.22v4.28h-17.18v3.212h3.758v.535c0 2.656-2.167 4.816-4.831 4.816-2.664 0-4.832-2.16-4.832-4.816v-3.746H37.58v3.746c0 4.426 3.613 8.027 8.053 8.027 4.44 0 8.052-3.6 8.052-8.027v-.535H68.985a5.09 5.09 0 0 0 3.489-1.381 5.09 5.09 0 0 0 3.49 1.38 5.09 5.09 0 0 0 3.489-1.38 5.089 5.089 0 0 0 3.489 1.38H102V5.947z"></path>
        <path d="M84.702 19.297h3.854V22h3.304v-5.946h-7.158zM102 0h-6.561v2.973H102zM26.842 11.297H10.737V5.946h16.105zM26.842 22H0v-5.351h26.842z"></path>
    </g>
</symbol>
</svg>